<?xml version="1.0" standalone="no"?>
<!DOCTYPE svg PUBLIC "-//W3C//DTD SVG 20010904//EN"
 "http://www.w3.org/TR/2001/REC-SVG-20010904/DTD/svg10.dtd">
<svg version="1.0" xmlns="http://www.w3.org/2000/svg"
 width="1024.000000pt" height="1024.000000pt" viewBox="0 0 1024.000000 1024.000000"
 preserveAspectRatio="xMidYMid meet">
<metadata>
Created by potrace 1.14, written by Peter Selinger 2001-2017
</metadata>
<g transform="translate(0.000000,1024.000000) scale(0.100000,-0.100000)"
fill="#000000" stroke="none">
<path d="M2729 10236 c-2 -2 -28 -7 -58 -10 -110 -13 -317 -67 -373 -97 -11
-6 -27 -12 -37 -14 -35 -6 -223 -112 -310 -173 -80 -57 -220 -185 -293 -268
-46 -52 -139 -187 -161 -231 -12 -24 -25 -43 -29 -43 -4 0 -8 -5 -8 -11 0 -6
-15 -43 -34 -82 -34 -73 -92 -234 -101 -285 -6 -30 -12 -65 -20 -102 -27 -131
-27 -433 0 -560 3 -14 8 -38 10 -55 10 -51 38 -148 57 -193 10 -24 17 -46 16
-50 -1 -4 21 -55 49 -113 53 -108 143 -250 210 -329 63 -75 189 -196 256 -245
34 -25 70 -53 80 -61 9 -8 21 -14 26 -14 5 0 13 -6 19 -13 16 -18 194 -107
287 -142 67 -26 80 -34 79 -53 0 -12 3 -22 6 -22 4 0 4 -18 0 -40 -4 -22 -4
-40 1 -40 5 0 4 -11 -1 -25 -5 -13 -6 -27 -1 -29 4 -3 5 -26 1 -51 -4 -25 -3
-45 1 -45 5 0 4 -11 -1 -25 -6 -15 -6 -27 0 -30 5 -3 6 -15 1 -28 -11 -28 -11
-38 0 -59 6 -10 5 -19 -1 -23 -5 -3 -6 -15 -1 -28 5 -12 5 -32 0 -44 -5 -13
-4 -25 1 -28 6 -3 6 -15 0 -30 -6 -15 -6 -27 0 -30 6 -3 6 -15 0 -30 -6 -15
-6 -27 1 -30 5 -4 7 -11 4 -16 -8 -13 -9 -244 -1 -257 3 -6 2 -13 -3 -17 -7
-4 -7 -15 -1 -30 5 -14 6 -25 2 -25 -4 0 -7 -18 -7 -40 0 -22 3 -40 7 -40 4 0
3 -11 -2 -25 -5 -13 -6 -27 -1 -29 4 -3 5 -26 1 -51 -4 -25 -3 -45 1 -45 5 0
4 -11 -1 -25 -6 -15 -6 -27 0 -30 5 -3 6 -15 1 -28 -11 -28 -11 -38 0 -59 6
-10 5 -19 -1 -23 -5 -3 -6 -15 -1 -28 5 -12 5 -32 0 -44 -5 -13 -4 -25 1 -28
6 -3 6 -15 0 -30 -6 -15 -6 -27 0 -30 6 -3 6 -15 0 -30 -6 -15 -6 -27 1 -30 5
-4 7 -11 4 -16 -8 -13 -9 -244 -1 -257 3 -6 2 -13 -3 -17 -7 -4 -7 -15 -1 -30
5 -14 6 -25 2 -25 -4 0 -7 -18 -7 -40 0 -22 3 -40 7 -40 4 0 3 -11 -2 -25 -5
-13 -6 -27 -1 -29 4 -3 5 -26 1 -51 -4 -25 -3 -45 1 -45 5 0 4 -11 -1 -25 -6
-15 -6 -27 0 -30 8 -5 2 -33 -10 -55 -2 -3 2 -15 8 -27 8 -14 8 -24 2 -28 -5
-3 -6 -15 -1 -28 5 -12 5 -32 0 -44 -5 -13 -4 -25 1 -28 6 -3 6 -15 0 -30 -6
-15 -6 -27 0 -30 6 -3 6 -15 0 -30 -6 -15 -6 -27 1 -30 5 -4 7 -11 4 -16 -8
-13 -9 -244 -1 -257 3 -6 2 -13 -3 -17 -7 -4 -7 -15 -1 -30 5 -14 6 -25 2 -25
-4 0 -7 -18 -7 -40 0 -22 3 -40 7 -40 4 0 3 -11 -2 -25 -5 -13 -6 -27 -1 -29
4 -3 5 -26 1 -51 -4 -25 -3 -45 1 -45 5 0 4 -11 -1 -25 -6 -15 -6 -27 0 -30 5
-3 6 -15 1 -28 -11 -28 -11 -38 0 -59 6 -10 5 -19 -1 -23 -5 -3 -6 -15 -1 -28
5 -12 5 -32 0 -44 -5 -13 -4 -25 1 -28 6 -3 6 -15 0 -30 -6 -15 -6 -27 0 -30
6 -3 6 -15 0 -30 -6 -15 -6 -27 1 -30 5 -4 7 -11 4 -16 -8 -13 -9 -244 -1
-257 3 -6 2 -13 -3 -17 -7 -4 -7 -15 -1 -30 5 -14 6 -25 2 -25 -7 0 -8 -43 -1
-76 3 -18 -1 -34 -8 -32 -11 3 -84 -22 -108 -36 -11 -7 -42 -21 -70 -31 -27
-10 -52 -21 -55 -24 -3 -3 -32 -20 -65 -38 -159 -85 -390 -284 -485 -419 -84
-119 -109 -159 -156 -249 -30 -58 -52 -105 -49 -105 3 0 -2 -15 -12 -32 -9
-18 -18 -37 -19 -43 -2 -5 -16 -57 -33 -115 -48 -171 -56 -230 -55 -430 0
-142 6 -225 19 -283 3 -12 7 -33 9 -47 18 -97 65 -237 118 -348 38 -79 106
-201 118 -212 3 -3 16 -22 29 -42 12 -21 26 -38 31 -38 5 0 11 -8 14 -18 12
-35 285 -302 310 -302 4 0 19 -11 34 -25 15 -14 30 -25 34 -25 4 0 23 -11 43
-24 76 -52 310 -156 381 -169 10 -2 26 -7 34 -10 8 -4 26 -8 40 -11 14 -2 32
-7 40 -10 8 -3 33 -8 55 -11 22 -4 56 -9 75 -12 52 -9 358 -9 415 0 102 15
121 19 180 34 136 34 402 144 420 173 3 6 11 8 16 5 5 -4 9 -1 9 4 0 6 7 11
15 11 8 0 15 5 15 10 0 6 7 10 15 10 8 0 15 5 15 10 0 6 5 10 10 10 6 0 16 4
23 10 100 79 163 134 217 190 79 81 120 128 120 136 0 3 7 12 15 21 42 41 217
343 200 343 -3 0 3 17 13 37 24 49 69 198 86 288 10 56 19 140 20 192 1 29 4
53 8 53 4 0 4 11 -1 23 -5 13 -5 30 -1 37 5 8 6 18 3 24 -4 5 -7 34 -8 65 -3
77 -13 161 -24 198 -5 17 -7 34 -4 36 2 3 0 14 -5 24 -6 10 -12 32 -15 48 -16
93 -94 279 -176 420 -76 131 -242 323 -355 410 -21 17 -45 36 -52 43 -7 6 -17
12 -22 12 -6 0 -12 4 -14 9 -5 15 -156 104 -253 151 -49 23 -92 44 -94 46 -7
6 79 111 117 145 58 50 161 114 237 147 73 31 136 53 145 50 3 -1 16 4 28 11
13 7 33 14 45 17 12 2 31 6 42 9 62 16 249 54 291 59 27 4 56 9 64 11 8 2 40
6 70 10 30 3 66 7 80 9 37 6 142 18 280 31 25 3 68 7 95 10 47 5 120 11 210
19 72 7 190 18 215 21 14 2 52 6 85 9 33 3 76 8 95 11 19 3 51 7 70 10 52 5
125 15 146 19 20 4 88 14 139 22 29 4 102 18 155 30 14 3 34 7 45 9 64 12 163
36 185 45 14 5 34 11 45 13 11 2 54 14 95 27 41 14 77 25 80 25 3 1 19 7 35
14 17 6 55 21 85 33 30 12 60 24 65 28 6 4 31 14 58 24 26 10 47 23 47 28 0 6
3 9 6 5 8 -7 98 43 218 121 154 101 288 223 418 380 32 40 128 183 128 193 0
5 5 9 12 9 6 0 8 3 5 6 -4 4 2 19 11 33 20 29 92 175 92 186 0 4 6 21 14 38
22 52 69 198 82 257 11 53 16 75 18 85 9 34 24 123 32 185 3 25 7 56 10 70 2
14 6 79 9 145 4 66 8 125 10 131 2 6 15 14 29 18 13 3 53 19 88 35 35 15 70
31 78 35 8 3 33 17 55 31 22 13 52 29 68 36 15 6 27 15 27 20 0 5 5 9 11 9 6
0 24 10 39 23 15 12 40 31 56 42 136 97 316 297 411 460 28 48 113 224 113
235 0 6 9 29 20 50 11 22 18 40 16 40 -3 0 2 19 10 42 8 23 16 53 19 67 3 14
7 37 11 51 21 93 32 223 29 360 -1 85 -4 155 -5 155 -1 0 -4 14 -5 30 -2 17
-4 32 -5 35 -1 3 -2 9 -1 13 2 13 -48 206 -70 272 -20 58 -124 279 -141 300
-4 5 -35 49 -69 96 -56 80 -193 231 -264 289 -56 46 -155 120 -162 120 -3 0
-14 6 -22 14 -22 19 -193 107 -261 133 -62 25 -173 61 -210 68 -134 29 -182
35 -277 40 -40 2 -77 6 -83 10 -5 3 -10 3 -10 -2 0 -4 -37 -8 -83 -9 -122 -1
-202 -12 -326 -45 -93 -25 -157 -46 -183 -60 -11 -6 -27 -12 -37 -14 -35 -7
-223 -112 -311 -174 -89 -62 -260 -223 -310 -289 -14 -19 -34 -46 -46 -60 -57
-74 -204 -332 -189 -332 3 0 -1 -13 -10 -30 -8 -16 -16 -33 -16 -37 -1 -5 -6
-19 -11 -33 -42 -107 -80 -301 -82 -417 -1 -29 -4 -53 -8 -53 -4 0 -4 -11 1
-23 5 -13 5 -30 1 -37 -5 -8 -6 -18 -3 -23 3 -5 7 -35 8 -66 4 -79 14 -161 24
-198 5 -17 7 -34 4 -36 -2 -3 0 -14 5 -24 6 -10 12 -31 15 -48 16 -93 94 -279
176 -420 76 -131 257 -339 360 -415 19 -14 40 -31 47 -37 7 -7 15 -13 19 -13
4 0 13 -6 20 -12 27 -24 40 -33 103 -71 35 -20 68 -37 73 -37 5 0 9 -4 9 -10
0 -5 6 -10 13 -10 7 0 36 -11 63 -25 27 -14 86 -38 129 -53 l80 -29 -1 -49
c-7 -317 -111 -598 -283 -762 -98 -94 -355 -237 -433 -242 -4 -1 -24 -8 -45
-16 -20 -9 -45 -18 -55 -20 -10 -2 -27 -6 -39 -9 -11 -2 -29 -7 -39 -10 -21
-7 -49 -13 -155 -35 -27 -6 -63 -12 -78 -15 -76 -12 -115 -18 -142 -20 -16 -2
-30 -4 -30 -5 0 -2 -16 -4 -100 -14 -33 -4 -71 -9 -85 -11 -14 -2 -56 -7 -95
-10 -38 -4 -83 -8 -100 -10 -16 -2 -64 -6 -105 -10 -78 -7 -101 -9 -210 -20
-102 -11 -131 -13 -200 -19 -36 -3 -81 -8 -100 -11 -19 -2 -57 -7 -85 -10 -65
-7 -148 -18 -225 -30 -14 -2 -43 -6 -65 -10 -23 -3 -52 -8 -65 -10 -71 -14
-87 -17 -111 -20 -15 -1 -31 -5 -37 -9 -5 -3 -25 -8 -43 -10 -118 -16 -420
-111 -565 -177 -52 -25 -57 -24 -52 6 3 14 2 25 -1 25 -3 0 -6 16 -6 35 0 19
2 35 5 35 7 0 3 77 -4 88 -2 4 -1 14 4 22 5 8 5 21 -1 31 -6 11 -5 20 1 24 5
3 6 15 1 28 -5 12 -5 32 0 44 5 13 4 25 -1 28 -6 3 -6 15 0 30 6 15 6 27 0 30
-6 3 -6 15 0 30 6 15 6 27 -1 30 -5 4 -7 11 -4 16 8 13 9 244 1 257 -3 6 -2
13 3 17 7 4 7 15 1 30 -5 14 -6 25 -2 25 4 0 7 18 7 40 0 22 -3 40 -7 40 -4 0
-3 11 2 25 5 13 6 27 1 29 -4 3 -5 26 -1 51 4 25 3 45 -1 45 -5 0 -4 11 1 25
6 15 6 27 0 30 -6 3 -5 16 1 33 11 29 11 29 -2 54 -6 10 -5 19 1 23 5 3 6 15
1 28 -5 12 -5 32 0 44 5 13 4 25 -1 28 -6 3 -6 15 0 30 6 15 6 27 0 30 -6 3
-6 15 0 30 5 13 6 26 2 29 -5 3 -5 30 -2 61 3 31 3 58 -2 61 -4 3 -3 15 2 28
5 13 6 27 3 30 -7 7 -10 76 -3 76 3 0 4 17 2 38 -4 54 -2 123 3 132 3 5 1 11
-4 15 -7 3 -7 15 -1 29 5 13 6 27 3 30 -8 7 -10 76 -3 76 3 0 4 19 2 43 -2 23
-3 47 -3 52 3 148 2 235 -3 243 -3 6 -2 13 3 17 7 4 7 15 1 30 -5 14 -6 25 -2
25 4 0 7 18 7 40 0 22 -3 40 -7 40 -4 0 -3 11 2 25 5 13 6 27 1 29 -4 3 -5 26
-1 51 4 25 3 45 -1 45 -5 0 -4 11 1 25 6 15 6 27 0 30 -5 3 -6 15 -1 28 5 12
5 32 0 45 -5 13 -5 21 0 18 4 -3 6 6 3 19 -4 23 15 38 63 51 23 5 159 67 203
91 26 15 56 31 67 37 147 79 346 257 468 421 20 28 40 55 45 60 29 35 101 173
162 310 45 100 95 318 105 458 2 33 6 61 8 63 3 3 1 21 -3 40 -5 20 -4 34 2
34 5 0 6 5 2 12 -4 6 -8 43 -10 82 -2 69 -8 125 -19 176 -3 14 -8 39 -10 55
-36 207 -180 504 -332 685 -74 89 -212 217 -299 278 -49 34 -94 66 -99 70 -45
37 -326 156 -417 177 -105 24 -159 35 -193 40 -43 7 -371 16 -376 11z m256
-1295 c22 -8 48 -20 58 -29 9 -8 17 -11 17 -7 0 19 82 -80 106 -128 20 -38 27
-69 29 -124 4 -99 -21 -166 -88 -233 -51 -52 -63 -60 -122 -80 -55 -19 -154
-21 -200 -5 -85 30 -156 92 -194 169 -29 60 -35 158 -14 231 51 170 235 263
408 206z m4512 -1293 c56 -27 126 -95 147 -141 24 -55 28 -70 32 -134 3 -63
-19 -153 -48 -189 -48 -60 -128 -120 -170 -128 -13 -3 -24 -5 -25 -5 -2 -1 -6
-1 -10 -2 -5 0 -14 -5 -20 -11 -7 -6 -13 -7 -13 -2 0 5 -27 10 -59 11 -70 2
-140 34 -202 93 -23 22 -39 40 -34 40 4 0 1 8 -7 18 -49 58 -59 208 -19 292
40 84 112 148 196 173 71 21 172 15 232 -15z m-4515 -5745 c7 -4 19 -8 26 -9
8 -2 22 -10 33 -20 10 -9 19 -13 19 -9 0 19 82 -80 106 -128 20 -38 27 -69 29
-124 4 -99 -21 -166 -88 -233 -51 -52 -63 -60 -123 -80 -55 -19 -152 -21 -199
-5 -87 31 -155 90 -194 169 -43 87 -32 232 22 311 45 65 120 119 190 135 38 9
162 4 179 -7z"/>
</g>
</svg>
